<svg width="60" height="60" viewBox="0 0 60 60" fill="none" xmlns="http://www.w3.org/2000/svg">
<path d="M22.0448 19.394L19.3936 22.0455L37.956 40.6062L40.6072 37.9547L22.0448 19.394Z" fill="#E588A7"/>
<path d="M18.0674 56.9321C14.0611 56.9321 10.2946 55.3721 7.46201 52.5384C4.62757 49.7059 3.06738 45.9394 3.06738 41.9321C3.06738 37.9258 4.62738 34.1584 7.46201 31.3258L31.3261 7.46156C34.1586 4.62806 37.9251 3.06787 41.9333 3.06787C45.9415 3.06787 49.7061 4.62787 52.5389 7.46156C55.3733 10.2941 56.9335 14.0606 56.9335 18.0679C56.9335 22.0751 55.3735 25.8416 52.5389 28.6742L28.6748 52.5382C25.8423 55.3717 22.0756 56.9321 18.0674 56.9321ZM41.9335 6.81787C38.9269 6.81787 36.1015 7.98787 33.9775 10.1128L10.1134 33.9771C7.98757 36.102 6.81757 38.9272 6.81757 41.9321C6.81757 44.937 7.98757 47.7622 10.1134 49.8872C12.2374 52.0121 15.0627 53.1821 18.0676 53.1821C21.0741 53.1821 23.8996 52.0121 26.0236 49.8872L49.8876 26.0231C52.0135 23.8982 53.1835 21.0729 53.1835 18.0681C53.1835 15.0632 52.0135 12.2379 49.8876 10.113C47.7636 7.98806 44.9384 6.81787 41.9335 6.81787Z" fill="#E588A7"/>
<path d="M36.6288 17.2907C36.149 17.2907 35.6694 17.1075 35.3032 16.7413C34.5708 16.009 34.5708 14.8225 35.3032 14.0899L36.6288 12.7643C38.7639 10.6275 41.9534 9.9829 44.7551 11.1192C45.7145 11.5082 46.1759 12.6013 45.7878 13.5608C45.3997 14.5212 44.3009 14.9798 43.3453 14.5945C41.9444 14.0278 40.3496 14.35 39.2803 15.4167L37.9546 16.7413C37.5884 17.1075 37.1084 17.2907 36.6288 17.2907Z" fill="#E588A7"/>
</svg>
